HIERARCHY
ROOT hip
{
  OFFSET 0 0 0
  CHANNELS 6 Xposition Yposition Zposition Zrotation Yrotation Xrotation
  JOINT abdomen
  {
    OFFSET 0 20.6881 -0.73152
    CHANNELS 3 Zrotation Xrotation Yrotation
    JOINT chest
    {
      OFFSET 0 11.7043 -0.48768
      CHANNELS 3 Zrotation Xrotation Yrotation
      JOINT neck
      {
        OFFSET 0 22.1894 -2.19456
        CHANNELS 3 Zrotation Xrotation Yrotation
        JOINT head
        {
          OFFSET -0.24384 7.07133 1.2192
          CHANNELS 3 Zrotation Xrotation Yrotation
          JOINT leftEye
          {
            OFFSET 4.14528 8.04674 8.04672
            CHANNELS 3 Zrotation Xrotation Yrotation
            End Site
            {
              OFFSET 1 0 0
            }
          }
          JOINT rightEye
          {
            OFFSET -3.6576 8.04674 8.04672
            CHANNELS 3 Zrotation Xrotation Yrotation
            End Site
            {
              OFFSET 1 0 0
            }
          }
        }
      }
      JOINT rCollar
      {
        OFFSET -2.68224 19.2634 -4.8768
        CHANNELS 3 Zrotation Xrotation Yrotation
        JOINT rShldr
        {
          OFFSET -8.77824 -1.95073 1.46304
          CHANNELS 3 Zrotation Xrotation Yrotation
          JOINT rForeArm
          {
            OFFSET -28.1742 -1.7115 0.48768
            CHANNELS 3 Zrotation Xrotation Yrotation
            JOINT rHand
            {
              OFFSET -22.5879 0.773209 7.07136
              CHANNELS 3 Zrotation Xrotation Yrotation
              JOINT rThumb1
              {
                OFFSET -1.2192 -0.487915 3.41376
                CHANNELS 3 Zrotation Xrotation Yrotation
                JOINT rThumb2
                {
                  OFFSET -3.37035 -0.52449 3.41376
                  CHANNELS 3 Zrotation Xrotation Yrotation
                  End Site
                  {
                    OFFSET -1.78271 -1.18214 1.43049
                  }
                }
              }
              JOINT rIndex1
              {
                OFFSET -7.75947 0.938293 5.60832
                CHANNELS 3 Zrotation Xrotation Yrotation
                JOINT rIndex2
                {
                  OFFSET -2.54057 -0.884171 1.56538
                  CHANNELS 3 Zrotation Xrotation Yrotation
                  End Site
                  {
                    OFFSET -1.62519 -0.234802 1.16502
                  }
                }
              }
              JOINT rMid1
              {
                OFFSET -8.24714 1.18213 3.41376
                CHANNELS 3 Zrotation Xrotation Yrotation
                JOINT rMid2
                {
                  OFFSET -3.10165 -0.590103 1.0647
                  CHANNELS 3 Zrotation Xrotation Yrotation
                  End Site
                  {
                    OFFSET -2.48547 -0.328903 0.83742
                  }
                }
              }
              JOINT rRing1
              {
                OFFSET -8.82822 0.546677 1.51678
                CHANNELS 3 Zrotation Xrotation Yrotation
                JOINT rRing2
                {
                  OFFSET -2.60934 -0.819778 -0.0198488
                  CHANNELS 3 Zrotation Xrotation Yrotation
                  End Site
                  {
                    OFFSET -2.33842 -0.294052 0.168128
                  }
                }
              }
              JOINT rPinky1
              {
                OFFSET -8.27202 -0.0477905 -0.4584
                CHANNELS 3 Zrotation Xrotation Yrotation
                JOINT rPinky2
                {
                  OFFSET -1.82734 -0.647385 -0.700984
                  CHANNELS 3 Zrotation Xrotation Yrotation
                  End Site
                  {
                    OFFSET -1.69225 -0.51767 -0.607171
                  }
                }
              }
            }
          }
        }
      }
      JOINT lCollar
      {
        OFFSET 2.68224 19.2634 -4.8768
        CHANNELS 3 Zrotation Xrotation Yrotation
        JOINT lShldr
        {
          OFFSET 8.77824 -1.95073 1.46304
          CHANNELS 3 Zrotation Xrotation Yrotation
          JOINT lForeArm
          {
            OFFSET 28.1742 -1.7115 0.48768
            CHANNELS 3 Zrotation Xrotation Yrotation
            JOINT lHand
            {
              OFFSET 22.5879 0.773209 7.07136
              CHANNELS 3 Zrotation Xrotation Yrotation
              JOINT lThumb1
              {
                OFFSET 1.2192 -0.487915 3.41376
                CHANNELS 3 Zrotation Xrotation Yrotation
                JOINT lThumb2
                {
                  OFFSET 3.37035 -0.52449 3.41376
                  CHANNELS 3 Zrotation Xrotation Yrotation
                  End Site
                  {
                    OFFSET 1.78271 -1.18214 1.43049
                  }
                }
              }
              JOINT lIndex1
              {
                OFFSET 7.75947 0.938293 5.60832
                CHANNELS 3 Zrotation Xrotation Yrotation
                JOINT lIndex2
                {
                  OFFSET 2.54057 -0.884171 1.56538
                  CHANNELS 3 Zrotation Xrotation Yrotation
                  End Site
                  {
                    OFFSET 1.62519 -0.234802 1.16502
                  }
                }
              }
              JOINT lMid1
              {
                OFFSET 8.24714 1.18213 3.41376
                CHANNELS 3 Zrotation Xrotation Yrotation
                JOINT lMid2
                {
                  OFFSET 3.10165 -0.590103 1.0647
                  CHANNELS 3 Zrotation Xrotation Yrotation
                  End Site
                  {
                    OFFSET 2.48547 -0.328903 0.83742
                  }
                }
              }
              JOINT lRing1
              {
                OFFSET 8.82822 0.546677 1.51678
                CHANNELS 3 Zrotation Xrotation Yrotation
                JOINT lRing2
                {
                  OFFSET 2.60934 -0.819778 -0.0198488
                  CHANNELS 3 Zrotation Xrotation Yrotation
                  End Site
                  {
                    OFFSET 2.33842 -0.294052 0.168128
                  }
                }
              }
              JOINT lPinky1
              {
                OFFSET 8.27202 -0.0477905 -0.4584
                CHANNELS 3 Zrotation Xrotation Yrotation
                JOINT lPinky2
                {
                  OFFSET 1.82734 -0.647385 -0.700984
                  CHANNELS 3 Zrotation Xrotation Yrotation
                  End Site
                  {
                    OFFSET 1.69225 -0.51767 -0.607171
                  }
                }
              }
            }
          }
        }
      }
    }
  }
  JOINT rButtock
  {
    OFFSET -8.77824 4.35084 1.2192
    CHANNELS 3 Zrotation Xrotation Yrotation
    JOINT rThigh
    {
      OFFSET 0 -1.70687 -2.19456
      CHANNELS 3 Zrotation Xrotation Yrotation
      JOINT rShin
      {
        OFFSET 0 -36.8199 0.73152
        CHANNELS 3 Zrotation Xrotation Yrotation
        JOINT rFoot
        {
          OFFSET 0.73152 -45.1104 -5.12064
          CHANNELS 3 Zrotation Xrotation Yrotation
          End Site
          {
            OFFSET -1.1221 -3.69964 12.103
          }
        }
      }
    }
  }
  JOINT lButtock
  {
    OFFSET 8.77824 4.35084 1.2192
    CHANNELS 3 Zrotation Xrotation Yrotation
    JOINT lThigh
    {
      OFFSET 0 -1.70687 -2.19456
      CHANNELS 3 Zrotation Xrotation Yrotation
      JOINT lShin
      {
        OFFSET 0 -36.8199 0.73152
        CHANNELS 3 Zrotation Xrotation Yrotation
        JOINT lFoot
        {
          OFFSET -0.73152 -45.1104 -5.12064
          CHANNELS 3 Zrotation Xrotation Yrotation
          End Site
          {
            OFFSET 1.1221 -3.69964 12.103
          }
        }
      }
    }
  }
}
MOTION
Frames:	8
Frame Time:	0.00833333
208.16 -9.43061 18.4842 149.549 87.7313 120.92 -11.3701 57.3109 3.12879 0.0903136 -1.01861 1.53876 12.9651 13.6558 13.8041 -6.39921 -39.642 25.9742 -0.0 0.0 0.0 -0.0 0.0 0.0 1.35624e-14 2.56429e-12 7.49915e-14 23.6415 -25.5343 67.7326 -19.661 -53.6054 115.031 -2.03166 -36.9689 -6.07242 4.16573e-10 3.74878e-10 1.71158e-10 7.19642e-10 6.5092e-10 3.06275e-10 4.1658e-10 3.74874e-10 1.71139e-10 7.73091 5.47488 0.417314 4.16574e-10 3.74872e-10 1.71146e-10 2.90554 0.965183 0.102902 4.16584e-10 3.74875e-10 1.7115e-10 10.2786 0.731801 0.0259123 4.16573e-10 3.74878e-10 1.71158e-10 2.22167 -0.733487 -0.20892 1.34732e-14 2.5643e-12 7.48424e-14 37.5303 3.25975 -72.4285 20.4452 -13.5821 -39.7719 1.37702 -31.3298 4.90767 -1.74296e-09 -1.61629e-09 9.24565e-10 -3.0275e-09 -2.80017e-09 1.5532e-09 -1.74297e-09 -1.61628e-09 9.24575e-10 -7.73091 5.47488 -0.417314 -1.74296e-09 -1.61628e-09 9.24562e-10 -2.90554 0.965183 -0.102902 -1.74297e-09 -1.61628e-09 9.24566e-10 -10.2786 0.731801 -0.0259123 -1.74295e-09 -1.61628e-09 9.24555e-10 -2.22167 -0.733487 0.20892 -2.03217e-16 0.0 -3.88251e-19 -7.84983 -46.5282 -28.4523 -163.28 87.7232 167.67 -0.671906 -48.4914 16.8212 2.03217e-16 0.0 3.88251e-19 -18.2652 -29.3888 17.727 6.31169 78.6855 -3.29004 0.00611281 -40.6345 8.31457
208.156 -9.4168 18.5137 149.58 87.6591 120.955 -11.4313 57.2953 3.14624 0.0942192 -1.01041 1.5366 12.9287 13.4631 13.7899 -6.34472 -39.495 25.9317 -0.0 0.0 0.0 -0.0 0.0 0.0 1.56858e-14 2.16737e-12 6.65781e-14 23.6635 -25.4512 67.6882 -19.7651 -53.5279 114.782 -2.08342 -37.3547 -6.15823 2.4967e-10 -1.74244e-10 -2.12679e-10 4.40409e-10 -2.92144e-10 -3.6063e-10 2.49677e-10 -1.74249e-10 -2.12697e-10 7.73091 5.47488 0.417314 2.49671e-10 -1.74249e-10 -2.12689e-10 2.90554 0.965183 0.102902 2.49681e-10 -1.74247e-10 -2.12686e-10 10.2786 0.731801 0.0259123 2.4967e-10 -1.74243e-10 -2.12677e-10 2.22167 -0.733487 -0.20892 1.56611e-14 2.16737e-12 6.64224e-14 37.5387 3.23424 -72.4646 20.4416 -13.5774 -39.7628 1.37544 -31.3141 4.90464 -2.78369e-10 -2.44283e-10 3.64009e-11 -4.80911e-10 -4.19099e-10 5.48738e-11 -2.78375e-10 -2.44282e-10 3.64101e-11 -7.73091 5.47488 -0.417314 -2.78369e-10 -2.44281e-10 3.6398e-11 -2.90554 0.965183 -0.102902 -2.78374e-10 -2.44281e-10 3.64009e-11 -10.2786 0.731801 -0.0259123 -2.7836e-10 -2.44279e-10 3.63893e-11 -2.22167 -0.733487 0.20892 -2.03217e-16 0.0 -3.88251e-19 -8.06209 -46.6059 -28.5657 -163.445 87.7062 167.846 -0.638697 -48.4929 16.862 2.03217e-16 0.0 3.88251e-19 -18.2741 -29.3713 17.7109 6.27919 78.6817 -3.29924 0.000888699 -40.6251 8.2747
208.156 -9.40806 18.5393 149.568 87.5852 120.943 -11.5001 57.2834 3.158 0.101291 -1.008 1.53392 12.8501 13.2062 13.7781 -6.22906 -39.2607 25.9035 -0.0 0.0 0.0 -0.0 0.0 0.0 5.0743e-15 9.96558e-13 3.67068e-14 23.6821 -25.3545 67.6159 -19.887 -53.4357 114.488 -2.13935 -37.7625 -6.24997 2.99141e-11 -8.20192e-10 -6.6302e-10 7.10305e-11 -1.40049e-09 -1.14329e-09 2.99189e-11 -8.20198e-10 -6.63035e-10 7.73091 5.47488 0.417314 2.99149e-11 -8.20196e-10 -6.63027e-10 2.90554 0.965183 0.102902 2.99239e-11 -8.20195e-10 -6.63023e-10 10.2786 0.731801 0.0259123 2.99115e-11 -8.20191e-10 -6.63016e-10 2.22167 -0.733487 -0.20892 5.16347e-15 9.96553e-13 3.65422e-14 37.541 3.21125 -72.5115 20.4377 -13.5724 -39.7532 1.37398 -31.2996 4.90183 1.54877e-09 1.4857e-09 -1.06451e-09 2.696e-09 2.58264e-09 -1.80192e-09 1.54876e-09 1.48571e-09 -1.0645e-09 -7.73091 5.47488 -0.417314 1.54877e-09 1.48571e-09 -1.06451e-09 -2.90554 0.965183 -0.102902 1.54876e-09 1.48571e-09 -1.06451e-09 -10.2786 0.731801 -0.0259123 1.54878e-09 1.48571e-09 -1.06452e-09 -2.22167 -0.733487 0.20892 -2.03217e-16 0.0 -3.88251e-19 -8.32843 -46.7032 -28.708 -163.711 87.6739 168.12 -0.597552 -48.5037 16.9042 2.03217e-16 0.0 3.88251e-19 -18.2791 -29.3233 17.7131 6.24485 78.6856 -3.32605 -0.000986163 -40.6245 8.17699
208.158 -9.40082 18.5644 149.384 87.5264 120.757 -11.5717 57.274 3.17403 0.107311 -1.01933 1.53148 12.7843 12.9623 13.7618 -6.15087 -39.0286 25.853 -0.0 0.0 0.0 -0.0 0.0 0.0 -5.31001e-15 -2.18589e-13 5.19247e-15 23.706 -25.2292 67.5265 -20.0181 -53.3348 114.171 -2.19797 -38.1808 -6.34519 -1.97567e-10 -1.44266e-09 -1.09518e-09 -3.11952e-10 -2.46891e-09 -1.89491e-09 -1.97564e-10 -1.44267e-09 -1.09519e-09 7.73091 5.47488 0.417314 -1.97567e-10 -1.44266e-09 -1.09518e-09 2.90554 0.965183 0.102902 -1.97558e-10 -1.44266e-09 -1.09518e-09 10.2786 0.731801 0.0259123 -1.97572e-10 -1.44266e-09 -1.09517e-09 2.22167 -0.733487 -0.20892 -5.11402e-15 -2.18603e-13 5.01427e-15 37.5437 3.20342 -72.5636 20.4344 -13.5681 -39.7452 1.37228 -31.2826 4.89855 3.28103e-09 3.12688e-09 -2.10453e-09 5.7079e-09 5.43012e-09 -3.55587e-09 3.28103e-09 3.12688e-09 -2.10452e-09 -7.73091 5.47488 -0.417314 3.28103e-09 3.12688e-09 -2.10453e-09 -2.90554 0.965183 -0.102902 3.28103e-09 3.12688e-09 -2.10453e-09 -10.2786 0.731801 -0.0259123 3.28104e-09 3.12689e-09 -2.10455e-09 -2.22167 -0.733487 0.20892 -2.03217e-16 0.0 -3.88251e-19 -8.57838 -46.7894 -28.8377 -163.988 87.6385 168.403 -0.560066 -48.5189 16.9402 2.03217e-16 0.0 3.88251e-19 -18.2838 -29.2634 17.7343 6.21658 78.694 -3.35857 -0.000352958 -40.63 8.05195
208.163 -9.39341 18.5871 149.046 87.4862 120.413 -11.6417 57.2661 3.20429 0.108061 -1.05232 1.53004 12.7865 12.8089 13.7339 -6.20848 -38.888 25.743 -0.0 0.0 0.0 -0.0 0.0 0.0 -2.50517e-15 -7.48526e-13 -8.15017e-15 23.7437 -25.0606 67.4312 -20.1504 -53.232 113.848 -2.25767 -38.5981 -6.44127 -3.87646e-10 -1.92135e-09 -1.42448e-09 -6.31997e-10 -3.29217e-09 -2.46868e-09 -3.87644e-10 -1.92136e-09 -1.42449e-09 7.73091 5.47488 0.417314 -3.87646e-10 -1.92135e-09 -1.42448e-09 2.90554 0.965183 0.102902 -3.87637e-10 -1.92135e-09 -1.42447e-09 10.2786 0.731801 0.0259123 -3.87652e-10 -1.92135e-09 -1.42447e-09 2.22167 -0.733487 -0.20892 -2.26571e-15 -7.48544e-13 -8.34896e-15 37.553 3.22322 -72.6152 20.4326 -13.5658 -39.7408 1.36999 -31.2598 4.89414 4.46101e-09 4.23246e-09 -2.81006e-09 7.75946e-09 7.34842e-09 -4.74568e-09 4.461e-09 4.23246e-09 -2.81005e-09 -7.73091 5.47488 -0.417314 4.46101e-09 4.23245e-09 -2.81006e-09 -2.90554 0.965183 -0.102902 4.46101e-09 4.23246e-09 -2.81006e-09 -10.2786 0.731801 -0.0259123 4.46102e-09 4.23246e-09 -2.81007e-09 -2.22167 -0.733487 0.20892 -2.03217e-16 0.0 -3.88251e-19 -8.7407 -46.8344 -28.9126 -164.195 87.612 168.615 -0.537851 -48.5336 16.9627 2.03217e-16 0.0 3.88251e-19 -18.2913 -29.2102 17.775 6.20226 78.7037 -3.38488 0.00194545 -40.6387 7.93009
208.17 -9.38506 18.6062 148.628 87.4613 119.983 -11.7211 57.2567 3.25476 0.103371 -1.12179 1.52802 12.923 12.7858 13.6799 -6.53462 -38.859 25.4967 -0.0 0.0 0.0 -0.0 0.0 0.0 2.4811e-14 -1.44339e-13 8.89639e-15 23.8113 -24.8176 67.3274 -20.2749 -53.1333 113.543 -2.31945 -39.022 -6.53994 -5.23657e-10 -2.20493e-09 -1.6156e-09 -8.60714e-10 -3.78294e-09 -2.80365e-09 -5.23656e-10 -2.20493e-09 -1.61561e-09 7.73091 5.47488 0.417314 -5.23657e-10 -2.20493e-09 -1.6156e-09 2.90554 0.965183 0.102902 -5.23649e-10 -2.20493e-09 -1.6156e-09 10.2786 0.731801 0.0259123 -5.23664e-10 -2.20492e-09 -1.61559e-09 2.22167 -0.733487 -0.20892 2.49987e-14 -1.44354e-13 8.66499e-15 37.5673 3.29129 -72.6737 20.4323 -13.5654 -39.74 1.36634 -31.2234 4.88712 4.84933e-09 4.56506e-09 -3.0359e-09 8.43428e-09 7.92568e-09 -5.12657e-09 4.84932e-09 4.56506e-09 -3.03589e-09 -7.73091 5.47488 -0.417314 4.84933e-09 4.56506e-09 -3.0359e-09 -2.90554 0.965183 -0.102902 4.84932e-09 4.56506e-09 -3.0359e-09 -10.2786 0.731801 -0.0259123 4.84933e-09 4.56506e-09 -3.03592e-09 -2.22167 -0.733487 0.20892 -2.03217e-16 0.0 -3.88251e-19 -8.791 -46.8133 -28.9163 -164.359 87.5914 168.786 -0.540072 -48.5549 16.9592 2.03217e-16 0.0 3.88251e-19 -18.3234 -29.1646 17.842 6.20948 78.7152 -3.40137 0.00718654 -40.652 7.80686
208.174 -9.38587 18.6132 148.256 87.447 119.595 -11.8083 57.2473 3.31899 0.0951665 -1.21928 1.52562 13.1474 12.8455 13.6075 -7.04185 -38.8944 25.1555 -0.0 0.0 0.0 -0.0 0.0 0.0 6.71037e-14 1.12009e-12 4.34531e-14 23.9005 -24.5171 67.2134 -20.3983 -53.0338 113.239 -2.38395 -39.4549 -6.64199 -6.31213e-10 -2.36397e-09 -1.71796e-09 -1.04158e-09 -4.06154e-09 -2.98538e-09 -6.3121e-10 -2.36398e-09 -1.71797e-09 7.73091 5.47488 0.417314 -6.31213e-10 -2.36397e-09 -1.71796e-09 2.90554 0.965183 0.102902 -6.31205e-10 -2.36397e-09 -1.71795e-09 10.2786 0.731801 0.0259123 -6.31218e-10 -2.36397e-09 -1.71795e-09 2.22167 -0.733487 -0.20892 6.71798e-14 1.12008e-12 4.31798e-14 37.5845 3.39464 -72.7397 20.4331 -13.5663 -39.7419 1.36176 -31.1775 4.87828 4.72907e-09 4.40239e-09 -2.95207e-09 8.22463e-09 7.6436e-09 -4.98515e-09 4.72907e-09 4.40239e-09 -2.95205e-09 -7.73091 5.47488 -0.417314 4.72907e-09 4.40239e-09 -2.95206e-09 -2.90554 0.965183 -0.102902 4.72907e-09 4.40239e-09 -2.95207e-09 -10.2786 0.731801 -0.0259123 4.72907e-09 4.40239e-09 -2.95208e-09 -2.22167 -0.733487 0.20892 -2.03217e-16 0.0 -3.88251e-19 -8.76882 -46.748 -28.8728 -164.509 87.5725 168.942 -0.558551 -48.5828 16.9372 2.03217e-16 0.0 3.88251e-19 -18.3714 -29.118 17.9326 6.23222 78.7298 -3.41457 0.0152362 -40.6704 7.67015
208.174 -9.39748 18.6054 148.153 87.4551 119.479 -11.8794 57.2434 3.38838 0.0823923 -1.31781 1.52623 13.3457 12.9339 13.5433 -7.499 -38.9837 24.8589 -0.0 0.0 0.0 -0.0 0.0 0.0 1.06049e-13 2.39012e-12 7.76899e-14 23.9828 -24.2166 67.1008 -20.535 -52.9229 112.899 -2.4485 -39.8782 -6.74309 -7.286e-10 -2.46104e-09 -1.77394e-09 -1.20588e-09 -4.23424e-09 -3.08686e-09 -7.28597e-10 -2.46104e-09 -1.77395e-09 7.73091 5.47488 0.417314 -7.28601e-10 -2.46104e-09 -1.77394e-09 2.90554 0.965183 0.102902 -7.28593e-10 -2.46104e-09 -1.77393e-09 10.2786 0.731801 0.0259123 -7.28605e-10 -2.46103e-09 -1.77393e-09 2.22167 -0.733487 -0.20892 1.05999e-13 2.39012e-12 7.73746e-14 37.6102 3.49586 -72.7966 20.4353 -13.5691 -39.7473 1.35767 -31.1364 4.87036 4.42652e-09 4.07024e-09 -2.75771e-09 7.69824e-09 7.06757e-09 -4.65723e-09 4.42652e-09 4.07024e-09 -2.75769e-09 -7.73091 5.47488 -0.417314 4.42652e-09 4.07024e-09 -2.7577e-09 -2.90554 0.965183 -0.102902 4.42651e-09 4.07024e-09 -2.75771e-09 -10.2786 0.731801 -0.0259123 4.42652e-09 4.07024e-09 -2.75771e-09 -2.22167 -0.733487 0.20892 -2.03217e-16 0.0 -3.88251e-19 -8.69859 -46.6781 -28.8004 -164.577 87.5652 169.014 -0.57887 -48.6011 16.9189 2.03217e-16 0.0 3.88251e-19 -18.3933 -29.0748 18.0336 6.2579 78.7453 -3.42765 0.0231965 -40.691 7.53923
